<?xml version="1.0" encoding="UTF-8" standalone="no"?>
<!-- Generator: Adobe Illustrator 14.0.0, SVG Export Plug-In . SVG Version: 6.00 Build 43363)  -->

<svg
   xmlns:dc="http://purl.org/dc/elements/1.1/"
   xmlns:cc="http://creativecommons.org/ns#"
   xmlns:rdf="http://www.w3.org/1999/02/22-rdf-syntax-ns#"
   xmlns:svg="http://www.w3.org/2000/svg"
   xmlns="http://www.w3.org/2000/svg"
   xmlns:xlink="http://www.w3.org/1999/xlink"
   xmlns:sodipodi="http://sodipodi.sourceforge.net/DTD/sodipodi-0.dtd"
   xmlns:inkscape="http://www.inkscape.org/namespaces/inkscape"
   version="1.1"
   id="Layer_3"
   x="0px"
   y="0px"
   width="327.333px"
   height="200.909px"
   viewBox="0 0 327.333 200.909"
   enable-background="new 0 0 327.333 200.909"
   xml:space="preserve"
   inkscape:version="0.48.3.1 r9886"
   sodipodi:docname="plane-wave.svg.2014_01_15_17_47_02.0.svg"><sodipodi:namedview
     pagecolor="#ffffff"
     bordercolor="#666666"
     borderopacity="1"
     objecttolerance="10"
     gridtolerance="10"
     guidetolerance="10"
     inkscape:pageopacity="0"
     inkscape:pageshadow="2"
     inkscape:window-width="1920"
     inkscape:window-height="1006"
     id="namedview37"
     showgrid="false"
     inkscape:zoom="1.4142136"
     inkscape:cx="343.66062"
     inkscape:cy="98.095333"
     inkscape:window-x="0"
     inkscape:window-y="25"
     inkscape:window-maximized="1"
     inkscape:current-layer="planes-and-wave" /><metadata
     id="metadata41"><rdf:RDF><cc:Work
         rdf:about=""><dc:format>image/svg+xml</dc:format><dc:type
           rdf:resource="http://purl.org/dc/dcmitype/StillImage" /></cc:Work></rdf:RDF></metadata><defs
     id="defs39"><path
       d="M 42 0 m 248 352 c 82 27 140 97 140 176 c 0 82 -88 138 -184 138           c -101 0 -177 -60 -177 -136 c 0 -33 22 -52 51 -52 c 31 0 51 22 51 51           c 0 50 -47 50 -62 50 c 31 49 97 62 133 62 c 41 0 96 -22 96 -112           c 0 -12 -2 -70 -28 -114 c -30 -48 -64 -51 -89 -52           c -8 -1 -32 -3 -39 -3 c -8 -1 -15 -2 -15 -12 c 0 -11 7 -11 24 -11           h 44 c 82 0 119 -68 119 -166 c 0 -136 -69 -165 -113 -165           c -43 0 -118 17 -153 76 c 35 -5 66 17 66 55 c 0 36 -27 56 -56 56           c -24 0 -56 -14 -56 -58 c 0 -91 93 -157 202 -157           c 122 0 213 91 213 193 c 0 82 -63 160 -167 181 z"
       id="three" /><path
       d="M 50 0 m 399 174 h -25 c -5 -30 -12 -74 -22 -89 c -7 -8 -73 -8 -95 -8           h -180 l 106 103 c 156 138 216 192 216 292 c 0 114 -90 194 -212 194           c -113 0 -187 -92 -187 -181 c 0 -56 50 -56 53 -56 c 17 0 52 12 52 53           c 0 26 -18 52 -53 52 c -8 0 -10 0 -13 -1 c 23 65 77 102 135 102           c 91 0 134 -81 134 -163 c 0 -80 -50 -159 -105 -221 l -192 -214           c -11 -11 -11 -13 -11 -37 h 371 z"
       id="two" /><path
       d="M 89 0 m 205 640 c 0 24 0 26 -23 26 c -62 -64 -150 -64 -182 -64 v -31           c 20 0 79 0 131 26 v -518 c 0 -36 -3 -48 -93 -48 h -32 v -31           c 35 3 122 3 162 3 c 40 0 127 0 162 -3 v 31 h -32           c -90 0 -93 11 -93 48 z"
       id="one" /><path
       d="M 83 0 m 578 230 c 14 0 33 0 33 20 c 0 20 -19 20 -33 20 h -467.2           c -14 0 -33 0 -33 -20 c 0 -20 19 -20 33 -20 z"
       id="minus" /><path
       d="M 27 0 m 238 373 h 113 c -33 -148 -42 -191 -42 -258           c 0 -15 0 -42 8 -76 c 10 -44 21 -50 36 -50 c 20 0 41 18 41 38           c 0 6 0 8 -6 22 c -29 72 -29 137 -29 165 c 0 53 7 107 18 159 h 114           c 13 0 49 0 49 34 c 0 24 -21 24 -40 24 h -335 c -22 0 -60 0 -104 -47           c -35 -39 -61 -85 -61 -90 c 0 -1 0 -10 12 -10 c 8 0 10 4 16 12           c 49 77 107 77 127 77 h 57 c -32 -121 -86 -242 -128 -333           c -8 -15 -8 -17 -8 -24 c 0 -19 16 -27 29 -27 c 30 0 38 28 50 65           c 14 46 14 48 27 98 z"
       id="pi" /><path
       d="M 29 0 m 305 302 c 6 26 29 118 99 118 c 5 0 29 0 50 -13           c -28 -5 -48 -30 -48 -54 c 0 -16 11 -35 38 -35 c 22 0 54 18 54 58           c 0 52 -59 66 -93 66 c -58 0 -93 -53 -105 -76 c -25 66 -79 76 -108 76           c -104 0 -161 -129 -161 -154 c 0 -10 10 -10 12 -10 c 8 0 11 2 13 11           c 34 106 100 131 134 131 c 19 0 54 -9 54 -67 c 0 -31 -17 -98 -54 -238           c -16 -62 -51 -104 -95 -104 c -6 0 -29 0 -50 13 c 25 5 47 26 47 54           c 0 27 -22 35 -37 35 c -30 0 -55 -26 -55 -58 c 0 -46 50 -66 94 -66           c 66 0 102 70 105 76 c 12 -37 48 -76 108 -76 c 103 0 160 129 160 154           c 0 10 -9 10 -12 10 c -9 0 -11 -4 -13 -11           c -33 -107 -101 -131 -133 -131 c -39 0 -55 32 -55 66           c 0 22 6 44 17 88 z"
       id="x" /><path
       d="M 57 0 m 232 250 c 0 78 -11 199 -66 312 c -60 123 -146 188 -156 188           c -6 0 -10 -4 -10 -10 c 0 -3 0 -5 19 -23 c 98 -99 155 -258 155 -467           c 0 -171 -37 -347 -161 -473 c -13 -12 -13 -14 -13 -17           c 0 -6 4 -10 10 -10 c 10 0 100 68 159 195 c 51 110 63 221 63 305 z"
       id="parright" /><path
       d="M 99 0 m 232 -240 c 0 3 0 5 -17 22 c -125 126 -157 315 -157 468           c 0 174 38 348 161 473 c 13 12 13 14 13 17 c 0 7 -4 10 -10 10           c -10 0 -100 -68 -159 -195 c -51 -110 -63 -221 -63 -305           c 0 -78 11 -199 66 -312 c 60 -123 146 -188 156 -188 c 6 0 10 3 10 10           z"
       id="parleft" /><path
       d="M 32 0 m 78 344 v -268 c 0 -45 -11 -45 -78 -45 v -31           c 35 1 86 3 113 3 c 26 0 78 -2 112 -3 v 31 c -67 0 -78 0 -78 45 v 184           c 0 104 71 160 135 160 c 63 0 74 -54 74 -111 v -233           c 0 -45 -11 -45 -78 -45 v -31 c 35 1 86 3 113 3 c 26 0 78 -2 112 -3           v 31 c -52 0 -77 0 -78 30 v 191 c 0 86 0 117 -31 153           c -14 17 -47 37 -105 37 c -73 0 -120 -43 -148 -105 v 105 l -141 -11           v -31 c 70 0 78 -7 78 -56 z"
       id="n" /><path
       d="M 33 0 m 144 442 l -140 -11 v -31 c 65 0 74 -6 74 -55 v -269           c 0 -45 -11 -45 -78 -45 v -31 c 32 1 86 3 110 3 c 35 0 70 -2 104 -3           v 31 c -66 0 -70 5 -70 44 z M 177 75 m 4 541 c 0 32 -25 53 -53 53           c -31 0 -53 -27 -53 -53 c 0 -27 22 -53 53 -53 c 28 0 53 21 53 53 z"
       id="i" /><path
       d="M 33 0 m 175 194 c 22 -4 104 -20 104 -92 c 0 -51 -35 -91 -113 -91           c -84 0 -120 57 -139 142 c -3 13 -4 17 -14 17 c -13 0 -13 -7 -13 -25           v -132 c 0 -17 0 -24 11 -24 c 5 0 6 1 25 20 c 2 2 2 4 20 23           c 44 -42 89 -43 110 -43 c 115 0 161 67 161 139 c 0 53 -30 83 -42 95           c -33 32 -72 40 -114 48 c -56 11 -123 24 -123 82 c 0 35 26 76 112 76           c 110 0 115 -90 117 -121 c 1 -9 10 -9 12 -9 c 13 0 13 5 13 24 v 101           c 0 17 0 24 -11 24 c -5 0 -7 0 -20 -12 c -3 -4 -13 -13 -17 -16           c -38 28 -79 28 -94 28 c -122 0 -160 -67 -160 -123           c 0 -35 16 -63 43 -85 c 32 -26 60 -32 132 -46 z"
       id="s" /><line
       opacity="1"
       stroke-linecap="square"
       stroke-width="1"
       stroke="black"
       y2="-0"
       y1="0"
       x2="5"
       x1="-5"
       id="ytick" /><line
       opacity="1"
       stroke-linecap="square"
       stroke-width="1"
       stroke="black"
       y2="-5"
       y1="5"
       x2="0"
       x1="0"
       id="xtick" /><line
       opacity="0.4"
       stroke-linecap="square"
       stroke-width="0.5"
       stroke="black"
       y2="-0"
       y1="0"
       x2="261.799388"
       x1="-261.799388"
       id="ygridline" /><line
       opacity="0.4"
       stroke-linecap="square"
       stroke-width="0.5"
       stroke="black"
       y2="-55"
       y1="55"
       x2="0"
       x1="0"
       id="xgridline" /><marker
       orient="auto"
       markerHeight="4.5"
       markerWidth="6"
       markerUnits="strokeWidth"
       refY="2.25"
       refX="2.52"
       id="Arrow"><path
         id="path3016"
         d="M 2.52 2.25 L 0 4.5 L 6 2.25 L 0 0 z" /></marker></defs><path
     sodipodi:nodetypes="csssssssssssssssssssssssssssssssssssssssssssssssssssssssssssssssssssssssssssssssssssssssssssssssssssssssssssssssssssssssssssssssssssssssssssssssssssssssssssssc"
     inkscape:connector-curvature="0"
     d="m -70.0859,77.588931 c 0.32564,-1.86715 0.65017,-3.79636 0.97471,-5.72564 0.75153,-4.46763 1.50242,-8.93142 2.26776,-12.62864 0.61936,-2.99188 1.24305,-5.45711 1.88401,-7.04437 0.56244,-1.39285 1.12333,-2.07289 1.69649,-1.92999 0.57318,0.14291 1.13408,1.10264 1.69653,2.77596 0.64095,1.90689 1.26463,4.68314 1.88398,7.98388 0.76534,4.07883 1.51623,8.91704 2.26777,13.75943 0.75153,4.84238 1.50243,9.68061 2.26777,13.75945 0.61934,3.30074 1.24303,6.076949 1.884,7.983849 0.56243,1.67331 1.12332,2.63305 1.6965,2.77596 0.57312,0.14289 1.13396,-0.53703 1.69635,-1.92966 0.64107,-1.58737 1.26485,-4.052969 1.88427,-7.045409 0.7653,-3.69704 1.51616,-8.16057 2.26763,-12.62794 0.75149,-4.46736 1.50236,-8.93089 2.26764,-12.62793 0.61944,-2.99244 1.24322,-5.45803 1.88427,-7.04541 0.5624,-1.39263 1.12325,-2.07255 1.69637,-1.92965 0.57317,0.14291 1.13406,1.10264 1.6965,2.77595 0.64097,1.9069 1.26467,4.68312 1.88401,7.98386 0.76534,4.07884 1.51623,8.91706 2.26775,13.75945 0.75153,4.84238 1.50244,9.6806 2.26777,13.759419 0.61935,3.30074 1.24306,6.07699 1.884,7.98389 0.56245,1.67331 1.12334,2.63305 1.69651,2.77595 0.57316,0.14291 1.13406,-0.53714 1.6965,-1.92998 0.64094,-1.58727 1.2766,-3.87341 1.884,-7.04437 0.83647,-4.366919 1.57938,-8.530979 2.2679,-12.628609 0.75071,-4.46788 1.50243,-8.93143 2.26779,-12.62864 0.61934,-2.99188 1.24303,-5.45711 1.88397,-7.04438 0.56245,-1.39284 1.12334,-2.07289 1.69652,-1.92998 0.57315,0.1429 1.13405,1.10264 1.69649,2.77595 0.64096,1.9069 1.26466,4.68314 1.88399,7.98388 0.76535,4.07883 1.51625,8.91704 2.26778,13.75943 0.7515303,4.84239 1.5024303,9.680619 2.2677702,13.759459 0.61934,3.30073 1.24304,6.07695 1.88399,7.98384 0.56244,1.67332 1.12334,2.63305 1.69651,2.77596 0.57312,0.1429 1.13397,-0.53702 1.69637,-1.92965 0.64104,-1.58738 1.26483,-4.05297 1.88426,-7.04541 0.76530007,-3.69704 1.51614977,-8.160569 2.2676498,-12.627939 0.75148,-4.46736 1.50232,-8.9309 2.26762,-12.62794 0.61943,-2.99244 1.24322,-5.45803 1.88427,-7.04541 0.5624,-1.39263 1.12325,-2.07254 1.69636,-1.92965 0.57318,0.14291 1.13406,1.10264 1.69651,2.77596 0.64095,1.90689 1.26464,4.68311 1.88398,7.98384 0.76535,4.07885 1.51626,8.91708 2.26779,13.75947 0.75152,4.842379 1.50242,9.680589 2.26776,13.759419 0.61933,3.30074 1.24305,6.07699 1.884,7.98388 0.56245,1.67332 1.12333,2.63305 1.69651,2.77596 0.57315,0.1429 1.13404,-0.53715 1.69649,-1.92999 0.64096,-1.58726 1.27658,-3.87342 1.88399,-7.04437 0.83649,-4.36691 1.57941,-8.53099 2.26792,-12.62861 0.75073,-4.467869 1.50243,-8.931419 2.26776,-12.628639 0.61934,-2.99189 1.24305,-5.45711 1.88401,-7.04437 0.56244,-1.39285 1.12332,-2.0729 1.69649,-1.92999 0.57318,0.14291 1.13406,1.10264 1.69651,2.77596 0.64095,1.90689 1.26465,4.68314 1.884,7.98388 0.76533,4.07883 1.51624,8.91704 2.26775,13.759419 0.75155,4.84239 1.50244,9.68062 2.26778,13.75946 0.61934,3.30074 1.24304,6.07695 1.88399,7.98385 0.56246,1.67331 1.12335,2.63305 1.6965,2.77595 0.57314,0.1429 1.13398,-0.53702 1.69637,-1.92965 0.64106,-1.58737 1.26485,-4.05297 1.88427,-7.04541 0.7653,-3.69704 1.51615,-8.16057 2.26763,-12.62794 0.75149,-4.46736 1.50234,-8.930889 2.26763,-12.627939 0.61943,-2.99244 1.24322,-5.45803 1.88428,-7.0454 0.56239,-1.39263 1.12326,-2.07254 1.69636,-1.92966 0.57317,0.14291 1.13408,1.10265 1.69651,2.77596 0.64097,1.9069 1.26465,4.68311 1.884,7.98385 0.76535,4.078839 1.51622,8.917069 2.26776,13.759459 0.75154,4.84239 1.50243,9.68059 2.26777,13.75942 0.61934,3.30074 1.24305,6.07699 1.884,7.98388 0.56244,1.67332 1.12334,2.63305 1.6965,2.77596 0.57316,0.1429 1.13407,-0.53714 1.6965,-1.92999 0.64095,-1.58726 1.27672,-3.87286 1.884,-7.04437 0.83618,-4.36698 1.57904,-8.53116 2.26753,-12.6287 0.75072,-4.46788 1.50244,-8.93142 2.26779,-12.62864 0.61935,-2.991879 1.24304,-5.457109 1.88398,-7.044369 0.56245,-1.39285 1.12335,-2.07289 1.6965,-1.92999 0.5732,0.14292 1.13407,1.10266 1.6965,2.77595 0.64095,1.9069 1.2647,4.68316 1.88404,7.983899 0.76531,4.07882 1.51623,8.91703 2.26774,13.75942 0.75153,4.84238 1.50243,9.68061 2.26779,13.75946 0.61933,3.30073 1.24302,6.07696 1.88397,7.98384 0.56244,1.67332 1.12335,2.63305 1.69651,2.77596 0.57315,0.1429 1.13397,-0.53702 1.69636,-1.92965 0.64104,-1.58739 1.26484,-4.05298 1.88427,-7.04542 0.76529,-3.69704 1.51614,-8.16057 2.26765,-12.62793 0.75148,-4.46736 1.50233,-8.9309 2.26763,-12.62794 0.61944,-2.99243 1.2432,-5.45803 1.88428,-7.045409 0.56241,-1.39262 1.12325,-2.07254 1.69635,-1.92965 0.5732,0.14291 1.13404,1.10264 1.6965,2.77595 0.64097,1.906899 1.26465,4.683109 1.88397,7.983849 0.76536,4.07884 1.51626,8.91707 2.2678,13.75946 0.75154,4.84239 1.50244,9.6806 2.26779,13.75943 0.61935,3.30074 1.243,6.07698 1.88398,7.98388 0.56246,1.67332 1.12335,2.63305 1.69651,2.77596 0.57315,0.1429 1.13405,-0.53713 1.6965,-1.92999 0.64094,-1.58726 1.26729,-4.05166 1.88397,-7.04438 0.90505,-4.39211 1.57437,-8.52517 2.26478,-12.62939 0.75154,-4.46763 1.50242,-8.93142 2.26776,-12.62864 0.61936,-2.99188 1.24304,-5.45711 1.884,-7.04437 0.56244,-1.39285 1.12333,-2.07289 1.6965,-1.92999 0.57317,0.14291 1.13407,1.10264 1.69652,2.77596 0.64095,1.90689 1.26464,4.68314 1.88399,7.98388 0.76533,4.07883 1.51623,8.91704 2.26777,13.75943 0.75152,4.84238 1.50243,9.68061 2.26777,13.75945 0.61934,3.30074 1.24303,6.07696 1.88399,7.98385 0.56244,1.67332 1.12333,2.63305 1.69651,2.77596 0.57311,0.14289 1.13395,-0.53703 1.69635,-1.92965 0.64106,-1.58738 1.26485,-4.05297 1.88426,-7.04542 0.7653,-3.69704 1.51617,-8.16057 2.26764,-12.62793 0.75148,-4.46737 1.50236,-8.93089 2.26764,-12.62794 0.61944,-2.99244 1.24322,-5.45803 1.88427,-7.04541 0.5624,-1.39263 1.12325,-2.07254 1.69637,-1.92965 0.57317,0.14291 1.13406,1.10264 1.6965,2.77595 0.64096,1.9069 1.26467,4.68312 1.884,7.98386 0.76534,4.07884 1.51624,8.91707 2.26776,13.75945 0.75153,4.84239 1.50244,9.6806 2.26777,13.75943 0.61935,3.30074 1.24306,6.07698 1.884,7.98388 0.56245,1.67331 1.12334,2.63305 1.69651,2.77595 0.57316,0.14291 1.13406,-0.53713 1.6965,-1.92998 0.64094,-1.58727 1.2766,-3.87341 1.88399,-7.04437 0.83647,-4.36692 1.57939,-8.53098 2.2679,-12.62861 0.75072,-4.46788 1.50244,-8.93143 2.2678,-12.62864 0.61933,-2.99189 1.24303,-5.45711 1.88397,-7.04438 0.56245,-1.39284 1.12334,-2.07289 1.69651,-1.92998 0.57316,0.1429 1.13406,1.10264 1.6965,2.77595 0.64096,1.9069 1.26465,4.68314 1.88399,7.98388 0.76535,4.07883 1.51625,8.91704 2.26777,13.75943 0.75154,4.84239 1.50244,9.68062 2.26778,13.75946 0.61933,3.30073 1.24304,6.07695 1.88399,7.98385 0.56244,1.67331 1.12334,2.63305 1.6965,2.77595 0.57313,0.1429 1.13398,-0.53702 1.69638,-1.92965 0.64104,-1.58738 1.26483,-4.05297 1.88426,-7.04541 0.7653,-3.69704 1.51617,-8.16057 2.26769,-12.62792 0.75153,-4.46736 1.50226,-8.93092 2.26761,-12.62795 0.61944,-2.99243 1.24326,-5.45801 1.88429,-7.0454 0.56239,-1.39262 1.12322,-2.07255 1.69631,-1.92967 0.5732,0.14292 1.13411,1.10266 1.69652,2.77596 0.64091,1.90689 1.26464,4.68311 1.88398,7.98385 0.76536,4.07884 1.51624,8.91707 2.26779,13.75946 0.75146,4.84237 1.50236,9.68058 2.26776,13.75942 0.6193,3.30073 1.2429,6.07696 1.8839,7.98386 0.5624,1.67331 1.1234,2.63306 1.6966,2.77598 0.5731,0.14289 1.1341,-0.53714 1.6965,-1.92999 0.641,-1.58725 1.2765,-3.87343 1.8839,-7.04439 0.8365,-4.36691 1.5794,-8.53099 2.268,-12.62859 0.7507,-4.46788 1.5024,-8.93143 2.2678,-12.62863 0.6193,-2.99189 1.2429,-5.45714 1.884,-7.04437 0.5624,-1.39285 1.1233,-2.0729 1.6965,-1.92999 0.5732,0.14292 1.1341,1.10264 1.6965,2.77596 0.641,1.90689 1.2646,4.68312 1.884,7.98388 0.7653,4.07882 1.5162,8.91703 2.2677,13.75941 0.7516,4.8424 1.5024,9.68061 2.2678,13.75946 0.6193,3.30073 1.2431,6.07697 1.884,7.98385 0.5624,1.6733 1.1233,2.63304 1.6965,2.77596 0.5731,0.14289 1.1339,-0.53705 1.6963,-1.92967 0.641,-1.5874 1.2648,-4.05298 1.8843,-7.0454 0.7653,-3.69704 1.5161,-8.16059 2.2676,-12.62795 0.7516,-4.46734 1.5024,-8.93088 2.2677,-12.62792"
     style="opacity:0;fill:none;stroke:#87fb89;stroke-width:2;stroke-linecap:butt;stroke-miterlimit:4;stroke-opacity:1;stroke-dasharray:none;stroke-dashoffset:0"
     id="full-sine-wave" /><g
     id="planes-and-wave"
     style="fill:#ff0000;stroke:#000000;stroke-width:2.5"><path
       id="path4113"
       style="fill:none;stroke:#87fb89;stroke-width:2;stroke-linecap:round;stroke-miterlimit:4;stroke-opacity:1;stroke-dasharray:none;stroke-dashoffset:0"
       d="m -70.0859,77.58893 c 0.32564,-1.86715 0.65017,-3.79636 0.97471,-5.72564 0.75153,-4.46763 1.50242,-8.93142 2.26776,-12.628639 0.61936,-2.99188 1.24305,-5.45711 1.88401,-7.04437 0.56244,-1.39285 1.12333,-2.07289 1.69649,-1.92999"
       inkscape:connector-curvature="0"
       sodipodi:nodetypes="csssc" /><polygon
       id="polygon5"
       points="-73.222,36.578 5.645,8.29 5.645,77.725 -73.222,120.586 "
       style="fill:#d44444;fill-opacity:0.73366833;stroke:#333333"
       inkscape:tile-cx="-33.788493"
       inkscape:tile-cy="64.437999"
       inkscape:tile-w="78.866999"
       inkscape:tile-h="112.296"
       inkscape:tile-x0="-73.221992"
       inkscape:tile-y0="8.2899999" /><path
       id="path4150"
       style="fill:none;stroke:#87fb89;stroke-width:2;stroke-linecap:round;stroke-miterlimit:4;stroke-opacity:1;stroke-dasharray:none;stroke-dashoffset:0"
       d="m -63.26293,50.260291 c 0.57318,0.14291 1.13408,1.10264 1.69653,2.77596 0.64095,1.90689 1.26463,4.68314 1.883981,7.983879 0.76534,4.07883 1.51623,8.91704 2.26777,13.75943 0.75153,4.842381 1.50243,9.680611 2.26777,13.759451 0.61934,3.30074 1.24303,6.076949 1.884,7.983849 0.56243,1.67331 1.12332,2.63305 1.6965,2.77596 0.57312,0.14289 1.13396,-0.53703 1.69635,-1.92966 0.64107,-1.58737 1.26485,-4.052969 1.88427,-7.045409 0.7653,-3.69704 1.51616,-8.16057 2.26763,-12.627941 0.75149,-4.46736 1.50236,-8.93089 2.26764,-12.62793 0.61944,-2.99244 1.24322,-5.45803 1.88427,-7.045409 0.5624,-1.39263 1.12325,-2.07255 1.69637,-1.92965"
       inkscape:connector-curvature="0"
       sodipodi:nodetypes="csssssssssssc" /><use
       x="0"
       y="0"
       inkscape:tiled-clone-of="#polygon5"
       xlink:href="#polygon5"
       transform="translate(23.344632,5.8393919)"
       id="plane2"
       width="327.33301"
       height="200.909" /><use
       x="0"
       y="0"
       xlink:href="#path4150"
       id="wave-cycle-2"
       transform="translate(23.429673,5.8289844)"
       width="327.33301"
       height="200.909" /><use
       x="0"
       y="0"
       inkscape:tiled-clone-of="#polygon5"
       xlink:href="#polygon5"
       transform="translate(46.689263,11.678784)"
       id="plane3"
       width="327.33301"
       height="200.909" /><use
       x="0"
       y="0"
       xlink:href="#path4150"
       id="wave-cycle-3"
       transform="translate(46.774045,11.686402)"
       width="327.33301"
       height="200.909" /><use
       x="0"
       y="0"
       inkscape:tiled-clone-of="#polygon5"
       xlink:href="#polygon5"
       transform="translate(70.033895,17.518176)"
       id="plane4"
       width="327.33301"
       height="200.909" /><use
       x="0"
       y="0"
       xlink:href="#path4150"
       id="wave-cycle-4"
       transform="translate(70.186915,17.493556)"
       width="327.33301"
       height="200.909" /><use
       x="0"
       y="0"
       inkscape:tiled-clone-of="#polygon5"
       xlink:href="#polygon5"
       transform="translate(93.378526,23.357568)"
       id="plane5"
       width="327.33301"
       height="200.909" /><use
       x="0"
       y="0"
       xlink:href="#path4150"
       id="wave-cycle-5"
       transform="translate(93.578147,23.333278)"
       width="327.33301"
       height="200.909" /><use
       x="0"
       y="0"
       inkscape:tiled-clone-of="#polygon5"
       xlink:href="#polygon5"
       transform="translate(116.72316,29.19696)"
       id="plane6"
       width="327.33301"
       height="200.909" /><use
       x="0"
       y="0"
       xlink:href="#path4150"
       id="wave-cycle-6"
       transform="translate(116.97712,29.161248)"
       width="327.33301"
       height="200.909" /><use
       x="0"
       y="0"
       inkscape:tiled-clone-of="#polygon5"
       xlink:href="#polygon5"
       transform="translate(140.06779,35.036351)"
       id="plane7"
       width="327.33301"
       height="200.909" /><use
       x="0"
       y="0"
       xlink:href="#path4150"
       id="wave-cycle-7"
       transform="translate(140.36293,34.993531)"
       width="327.33301"
       height="200.909" /><use
       x="0"
       y="0"
       inkscape:tiled-clone-of="#polygon5"
       xlink:href="#polygon5"
       transform="translate(163.41242,40.875743)"
       id="plane8"
       width="327.33301"
       height="200.909" /><use
       x="0"
       y="0"
       xlink:href="#path4150"
       id="wave-cycle-8"
       transform="translate(163.75263,40.827873)"
       width="327.33301"
       height="200.909" /><use
       x="0"
       y="0"
       inkscape:tiled-clone-of="#polygon5"
       xlink:href="#polygon5"
       transform="translate(186.75705,46.715135)"
       id="plane9"
       width="327.33301"
       height="200.909" /><use
       x="0"
       y="0"
       xlink:href="#path4150"
       id="wave-cycle-9"
       transform="translate(187.14233,46.661948)"
       width="327.33301"
       height="200.909" /><use
       x="0"
       y="0"
       inkscape:tiled-clone-of="#polygon5"
       xlink:href="#polygon5"
       transform="translate(210.10168,52.554527)"
       id="plane10"
       width="327.33301"
       height="200.909" /><use
       x="0"
       y="0"
       xlink:href="#path4150"
       id="wave-cycle-10"
       transform="translate(210.53204,52.494204)"
       width="327.33301"
       height="200.909" /><use
       x="0"
       y="0"
       inkscape:tiled-clone-of="#polygon5"
       xlink:href="#polygon5"
       transform="translate(233.44632,58.393919)"
       id="plane11"
       width="327.33301"
       height="200.909" /><use
       x="0"
       y="0"
       xlink:href="#path4150"
       id="wave-cycle-11"
       transform="translate(233.92799,58.326725)"
       width="327.33301"
       height="200.909" /><use
       x="0"
       y="0"
       inkscape:tiled-clone-of="#polygon5"
       xlink:href="#polygon5"
       transform="translate(256.79095,64.233311)"
       id="plane12"
       width="327.33301"
       height="200.909" /><use
       x="0"
       y="0"
       xlink:href="#path4150"
       id="wave-cycle-12"
       transform="translate(257.31925,64.155075)"
       width="327.33301"
       height="200.909" /><use
       x="0"
       y="0"
       inkscape:tiled-clone-of="#polygon5"
       xlink:href="#polygon5"
       transform="translate(280.13558,70.072703)"
       id="plane13"
       width="327.33301"
       height="200.909" /><path
       sodipodi:nodetypes="cssssssssc"
       inkscape:connector-curvature="0"
       d="m 217.45174,120.25126 c 0.57318,0.14291 1.13408,1.10264 1.69653,2.77596 0.64095,1.90689 1.26463,4.68314 1.88398,7.98388 0.76534,4.07883 1.51623,8.91704 2.26777,13.75943 0.75153,4.84238 1.50243,9.68061 2.26777,13.75945 0.61934,3.30074 1.24303,6.07695 1.884,7.98385 0.56243,1.67331 1.12332,2.63305 1.6965,2.77596 0.57312,0.14289 1.13396,-0.53703 1.69635,-1.92966 0.64107,-1.58737 1.26485,-4.05297 1.88427,-7.04541 0.7653,-3.69704 1.51616,-8.16057 2.26763,-12.62794"
       style="fill:none;stroke:#87fb89;stroke-width:2;stroke-linecap:round;stroke-miterlimit:4;stroke-opacity:1;stroke-dasharray:none;stroke-dashoffset:0"
       id="wave-cycle-13" /></g><g
     id="arrow"><path
       sodipodi:nodetypes="ccccc"
       inkscape:connector-curvature="0"
       id="polyline33"
       d="M 314.27847,143.20503 295.897,127.657 l -3.215,4.072 -22.288,-5.571 -9.77509,7.11141"
       style="fill:none;stroke:#000000;stroke-width:1.25"
       transform="translate(0.08838835,-0.08838835)" /><polygon
       transform="translate(0.02209709,-0.02209709)"
       id="polygon35"
       points="279.179,146.089 258.284,138.374 260.321,132.695 283.144,140.519 279.5,144.589 314.752,142.66 318.235,149.517 278.054,152.088 " /><path
       sodipodi:nodetypes="cccccccc"
       inkscape:connector-curvature="0"
       id="polyline3021"
       d="m 312.95008,142.72872 -16.84316,-14.27622 -3.08242,3.85102 -22.40784,-5.55958 -8.82906,6.42133 21.34894,7.35157 -3.63452,4.07153 z"
       style="fill:#ffffff;stroke:none" /></g></svg>